<?xml version="1.0" encoding="UTF-8"?>
<svg version="1.1" xmlns="http://www.w3.org/2000/svg" width="500" height="500">
<path d="M0 0 C13.01462751 10.14473529 23.15453572 25.07426025 26.6015625 41.4140625 C29.066309 63.21015413 25.57979799 82.65638353 12.1875 100.375 C3.51573058 110.38862929 -9.57260016 120.44798076 -23 122.9375 C-24 121.9375 -24 121.9375 -24.09765625 118.99609375 C-24.08605469 117.80113281 -24.07445312 116.60617187 -24.0625 115.375 C-24.05347656 114.17746094 -24.04445313 112.97992188 -24.03515625 111.74609375 C-24.02355469 110.81925781 -24.01195312 109.89242187 -24 108.9375 C-23.10539062 108.46441406 -22.21078125 107.99132812 -21.2890625 107.50390625 C-5.35854919 98.87883855 5.10239681 88.65763648 11.0546875 71.234375 C15.36179781 56.21288283 12.93460467 41.28021596 5.58203125 27.6484375 C-1.84406724 14.92322182 -13.30706381 6.52660804 -27.41796875 2.1953125 C-44.80324269 -1.94538896 -60.52863207 2.32277054 -75.4375 11.42578125 C-87.02117553 19.53033201 -93.73555214 33.00876707 -96.8125 46.5 C-96.874375 47.634375 -96.93625 48.76875 -97 49.9375 C-97.061875 50.77023438 -97.12375 51.60296875 -97.1875 52.4609375 C-97.86758635 68.31545065 -92.48891937 83.60972583 -81.71484375 95.35546875 C-75.30148894 101.27211727 -67.83740523 105.24272325 -60 108.9375 C-60 113.2275 -60 117.5175 -60 121.9375 C-60.66 122.2675 -61.32 122.5975 -62 122.9375 C-64.59644197 122.02499323 -67.05241913 121.0498349 -69.5625 119.9375 C-70.28542236 119.61934326 -71.00834473 119.30118652 -71.75317383 118.97338867 C-77.51480959 116.3449453 -82.25509684 113.13893407 -87 108.9375 C-88.5159375 107.7928125 -88.5159375 107.7928125 -90.0625 106.625 C-90.701875 106.068125 -91.34125 105.51125 -92 104.9375 C-92 104.2775 -92 103.6175 -92 102.9375 C-92.66 102.9375 -93.32 102.9375 -94 102.9375 C-108.27368092 85.75198818 -112.5370414 66.84637543 -111 44.9375 C-108.88543035 27.60788174 -98.85627803 11.31744561 -85.27001953 0.56884766 C-59.75965928 -18.19893466 -25.76618479 -18.13782258 0 0 Z " fill="#3463E2" transform="translate(292,140.0625)"/>
<path d="M0 0 C10.30339651 8.74321203 16.27588533 19.97983004 17.59375 33.4609375 C17.9377421 45.33771723 13.94438985 55.29379734 7.35546875 65.0234375 C3.06363416 63.37786362 -0.69033424 61.34943574 -4.64453125 59.0234375 C-4.08763578 55.54284083 -2.50099796 52.88707685 -0.6796875 49.90234375 C3.30782857 42.6646259 3.79536028 34.33936136 1.6328125 26.35546875 C0.68243102 24.11995603 -0.38204559 22.09722541 -1.64453125 20.0234375 C-2.18787109 19.07017578 -2.18787109 19.07017578 -2.7421875 18.09765625 C-6.93717303 11.45678086 -13.2046945 8.1058579 -20.64453125 6.0234375 C-31.11674792 4.95636329 -39.11854528 6.41029283 -47.89453125 12.1484375 C-55.90924877 20.52746036 -58.00423251 28.15086824 -57.93359375 39.46484375 C-57.39179414 46.13483629 -54.65071847 50.81539411 -50.64453125 56.0234375 C-50.64453125 57.0134375 -50.64453125 58.0034375 -50.64453125 59.0234375 C-52.7265625 60.6640625 -52.7265625 60.6640625 -55.45703125 62.2734375 C-56.35035156 62.81484375 -57.24367187 63.35625 -58.1640625 63.9140625 C-60.64453125 65.0234375 -60.64453125 65.0234375 -63.64453125 64.0234375 C-64.97615452 61.86436904 -66.11217685 59.79829186 -67.20703125 57.5234375 C-67.6721814 56.56775879 -67.6721814 56.56775879 -68.14672852 55.59277344 C-73.90088965 43.42199085 -74.00536972 31.74392104 -69.64453125 19.0234375 C-63.96598239 5.77349017 -55.09586962 -1.57599898 -41.97265625 -7.1015625 C-27.9886886 -12.35728189 -11.66059835 -8.71530689 0 0 Z " fill="#3463E1" transform="translate(277.64453125,159.9765625)"/>
<path d="M0 0 C10.40590643 0.36854252 21.92677738 2.63535464 30.1875 9.3125 C30.9765625 11.50390625 30.9765625 11.50390625 31.1875 13.3125 C23.78797863 19.51321623 16.72166081 22.7234732 7.1875 24.3125 C7.1875 31.5725 7.1875 38.8325 7.1875 46.3125 C8.5075 46.3125 9.8275 46.3125 11.1875 46.3125 C11.1875 59.5125 11.1875 72.7125 11.1875 86.3125 C3.9275 86.3125 -3.3325 86.3125 -10.8125 86.3125 C-10.8125 73.4425 -10.8125 60.5725 -10.8125 47.3125 C-8.8325 46.8175 -8.8325 46.8175 -6.8125 46.3125 C-6.8125 39.0525 -6.8125 31.7925 -6.8125 24.3125 C-10.1125 23.6525 -13.4125 22.9925 -16.8125 22.3125 C-19.58203125 21.1640625 -19.58203125 21.1640625 -21.625 19.9375 C-22.35203125 19.50308594 -23.0790625 19.06867188 -23.828125 18.62109375 C-26.28950833 16.99793742 -28.58935481 15.24878775 -30.8125 13.3125 C-30.70703125 11.5390625 -30.70703125 11.5390625 -29.8125 9.3125 C-20.50478568 3.01883868 -11.04552754 0.90537111 0 0 Z " fill="#010101" transform="translate(249.8125,215.6875)"/>
<path d="M0 0 C4.95 0 9.9 0 15 0 C15 20.46 15 40.92 15 62 C10.05 62 5.1 62 0 62 C0 53.75 0 45.5 0 37 C-7.59 37 -15.18 37 -23 37 C-23 44.92 -23 52.84 -23 61 C-28.28 61 -33.56 61 -39 61 C-39 43.84 -39 26.68 -39 9 C-28 16 -28 16 -23 20 C-23 21.32 -23 22.64 -23 24 C-15.74 23.67 -8.48 23.34 -1 23 C-0.67 15.41 -0.34 7.82 0 0 Z " fill="#3463E3" transform="translate(178,290)"/>
<path d="M0 0 C5.01791684 2.41935276 8.49958655 5.9991731 11 11 C11.5072965 16.55531248 11.76260422 21.41830236 9.3125 26.5 C5.58266547 30.53225354 2.40147489 33.69556507 -3.26953125 34.203125 C-8.61692994 34.30169456 -12.46861245 34.16143318 -17 31 C-21.33846282 26.57901207 -23.16622109 23.43990751 -23.3125 17.25 C-23.26196419 11.96900791 -22.69408863 8.99360933 -19 5 C-12.83628287 -0.42994128 -8.09617809 -0.76299061 0 0 Z " fill="#010101" transform="translate(256,179)"/>
<path d="M0 0 C3.50625 -0.0825 7.0125 -0.165 10.625 -0.25 C11.71893066 -0.28641602 12.81286133 -0.32283203 13.93994141 -0.36035156 C19.98536096 -0.42911253 23.40086734 -0.02330629 28 4 C30.98720547 7.09021256 31.74845419 9.72372123 32 14 C30.7099768 20.34261408 30.7099768 20.34261408 28.3125 22.5625 C27.879375 23.036875 27.44625 23.51125 27 24 C27.23283149 27.14921909 27.23283149 27.14921909 28 30 C29.65 30 31.3 30 33 30 C33 32.64 33 35.28 33 38 C23.90277778 38.625 23.90277778 38.625 20.5625 36.3125 C16 29.56 16 29.56 16 27 C14.02 27 12.04 27 10 27 C10 30.63 10 34.26 10 38 C6.7 38 3.4 38 0 38 C0 25.46 0 12.92 0 0 Z M10 8 C10 11.63 10 15.26 10 19 C14.87641253 19.29852484 14.87641253 19.29852484 19.4375 17.8125 C21.19922756 16.06925479 21.19922756 16.06925479 21.5 13.5 C21.19922756 10.93074521 21.19922756 10.93074521 19.4375 9.1875 C16.19571384 7.60816828 13.55711122 7.79478204 10 8 Z " fill="#010101" transform="translate(260,313)"/>
<path d="M0 0 C0.89267578 0.00322266 1.78535156 0.00644531 2.70507812 0.00976562 C4.09823242 0.02233398 4.09823242 0.02233398 5.51953125 0.03515625 C6.45990234 0.03966797 7.40027344 0.04417969 8.36914062 0.04882812 C10.69016837 0.06060999 13.01106769 0.07706067 15.33203125 0.09765625 C15.33203125 2.73765625 15.33203125 5.37765625 15.33203125 8.09765625 C13.74261719 8.18853516 13.74261719 8.18853516 12.12109375 8.28125 C10.73305904 8.36565752 9.34503893 8.45030542 7.95703125 8.53515625 C7.25835937 8.57447266 6.5596875 8.61378906 5.83984375 8.65429688 C1.95842633 8.84045759 1.95842633 8.84045759 -1.66796875 10.09765625 C-1.33796875 11.41765625 -1.00796875 12.73765625 -0.66796875 14.09765625 C6.26203125 14.59265625 6.26203125 14.59265625 13.33203125 15.09765625 C13.33203125 17.73765625 13.33203125 20.37765625 13.33203125 23.09765625 C8.71203125 23.42765625 4.09203125 23.75765625 -0.66796875 24.09765625 C-0.99796875 25.41765625 -1.32796875 26.73765625 -1.66796875 28.09765625 C0.39125527 30.15688027 4.54911249 29.51193204 7.39453125 29.66015625 C8.15314453 29.70333984 8.91175781 29.74652344 9.69335938 29.79101562 C11.57268563 29.89739258 13.45233369 29.99805559 15.33203125 30.09765625 C15.33203125 32.73765625 15.33203125 35.37765625 15.33203125 38.09765625 C11.95749227 38.24376938 8.58377359 38.33199092 5.20703125 38.41015625 C4.25570312 38.45205078 3.304375 38.49394531 2.32421875 38.53710938 C-5.63302614 38.67525599 -5.63302614 38.67525599 -9.28515625 35.703125 C-12.64332512 32.03116002 -12.87071211 30.09501534 -12.84375 25.125 C-12.66796875 23.09765625 -12.66796875 23.09765625 -11.54296875 20.34765625 C-11.10984375 19.23390625 -11.10984375 19.23390625 -10.66796875 18.09765625 C-10.9825 17.4840625 -11.29703125 16.87046875 -11.62109375 16.23828125 C-13.41292476 12.57438799 -12.66061496 8.95479581 -11.66796875 5.09765625 C-8.40701015 0.74971144 -5.25742785 -0.0334868 0 0 Z " fill="#010101" transform="translate(239.66796875,312.90234375)"/>
<path d="M0 0 C3.3 0 6.6 0 10 0 C10.03738281 1.03640625 10.07476562 2.0728125 10.11328125 3.140625 C10.17895788 4.51045184 10.24540464 5.88024191 10.3125 7.25 C10.33505859 7.93191406 10.35761719 8.61382812 10.38085938 9.31640625 C10.60166604 13.45151296 11.09593 15.97914434 14 19 C16.3431213 18.74438677 18.67843403 18.40729228 21 18 C22.585869 14.828262 22.37866445 11.36486178 22.5625 7.875 C22.60568359 7.12089844 22.64886719 6.36679687 22.69335938 5.58984375 C22.7994832 3.72678112 22.90025001 1.86341476 23 0 C26.3 0 29.6 0 33 0 C33.10876982 2.85520781 33.18766466 5.70620561 33.25 8.5625 C33.30027344 9.76229492 33.30027344 9.76229492 33.3515625 10.98632812 C33.44754766 16.86541899 32.4135539 20.18378576 29 25 C24.93548387 28 24.93548387 28 22 28 C22 31.3 22 34.6 22 38 C18.7 38 15.4 38 12 38 C12 34.7 12 31.4 12 28 C11.0925 27.7525 10.185 27.505 9.25 27.25 C5.75067048 25.90410403 4.24738236 24.96975527 2 22 C0.21009425 16.88417009 -0.22060248 12.46403996 -0.125 7.0625 C-0.11597656 6.37865234 -0.10695313 5.69480469 -0.09765625 4.99023438 C-0.07438958 3.32666713 -0.03853167 1.66328369 0 0 Z " fill="#010101" transform="translate(322,313)"/>
<path d="M0 0 C7.59 0 15.18 0 23 0 C23 2.64 23 5.28 23 8 C20.69 8 18.38 8 16 8 C16 15.26 16 22.52 16 30 C18.31 30 20.62 30 23 30 C23 32.64 23 35.28 23 38 C15.41 38 7.82 38 0 38 C0 35.36 0 32.72 0 30 C1.98 30 3.96 30 6 30 C6 22.74 6 15.48 6 8 C4.02 8 2.04 8 0 8 C0 5.36 0 2.72 0 0 Z " fill="#010101" transform="translate(201,313)"/>
<path d="M0 0 C3.3 0 6.6 0 10 0 C10.02505615 0.84296631 10.0501123 1.68593262 10.07592773 2.55444336 C10.17088155 5.67241674 10.27012448 8.79021503 10.37231445 11.90795898 C10.41571223 13.25914147 10.4573837 14.61038053 10.49731445 15.96166992 C10.55489952 17.90036701 10.61914298 19.83886276 10.68359375 21.77734375 C10.72025146 22.94515381 10.75690918 24.11296387 10.79467773 25.31616211 C10.70076188 27.91779795 10.70076188 27.91779795 12 29 C13.84891946 29.23363881 15.70488031 29.41303635 17.5625 29.5625 C18.57441406 29.64628906 19.58632813 29.73007812 20.62890625 29.81640625 C21.80259766 29.90728516 21.80259766 29.90728516 23 30 C23 32.64 23 35.28 23 38 C20.45651575 38.13593443 17.92038504 38.23448907 15.375 38.3125 C14.66214844 38.35439453 13.94929688 38.39628906 13.21484375 38.43945312 C9.20549121 38.53141075 6.73054878 38.21181033 3.5390625 35.66796875 C-0.3392656 31.59274092 -0.12057337 28.57588969 -0.09765625 23.14453125 C-0.0962413 22.48289474 -0.09482635 21.82125824 -0.09336853 21.13957214 C-0.08777996 19.03050172 -0.07522965 16.92153823 -0.0625 14.8125 C-0.05748352 13.38086091 -0.05292087 11.94922015 -0.04882812 10.51757812 C-0.0378143 7.01168412 -0.02055755 3.5058525 0 0 Z " fill="#010101" transform="translate(296,313)"/>
<path d="M0 0 C5.75 -0.125 5.75 -0.125 8 1 C9.47745349 1.12615827 10.95711283 1.22742028 12.4375 1.3125 C16.72620107 1.72620107 16.72620107 1.72620107 19.0625 4.0625 C19.371875 4.701875 19.68125 5.34125 20 6 C19.34 7.32 18.68 8.64 18 10 C18.66 10 19.32 10 20 10 C21.33333333 11.33333333 22.66666667 12.66666667 24 14 C18.47062207 14.25133536 18.47062207 14.25133536 16.13574219 13.00439453 C13.46999572 11.75075016 11.51594059 11.7720451 8.578125 11.8046875 C7.55332031 11.81113281 6.52851563 11.81757813 5.47265625 11.82421875 C3.87744141 11.84935547 3.87744141 11.84935547 2.25 11.875 C1.17105469 11.88402344 0.09210938 11.89304688 -1.01953125 11.90234375 C-3.67991278 11.92588695 -6.33984336 11.95877201 -9 12 C-9 11.34 -9 10.68 -9 10 C-10.9600281 8.36323743 -10.9600281 8.36323743 -13 7 C-12.67 6.34 -12.34 5.68 -12 5 C-11.34 5 -10.68 5 -10 5 C-10 4.01 -10 3.02 -10 2 C-6.7 2 -3.4 2 0 2 C0 1.34 0 0.68 0 0 Z " fill="#3363E7" transform="translate(248,127)"/>
<path d="M0 0 C2.475 0.99 2.475 0.99 5 2 C5 8.27 5 14.54 5 21 C3.02 21.33 1.04 21.66 -1 22 C-2.11375 22.185625 -3.2275 22.37125 -4.375 22.5625 C-5.24125 22.706875 -6.1075 22.85125 -7 23 C-7 22.01 -7 21.02 -7 20 C-6.34 20 -5.68 20 -5 20 C-5 15.38 -5 10.76 -5 6 C-4.01 5.67 -3.02 5.34 -2 5 C-0.78130071 2.49552484 -0.78130071 2.49552484 0 0 Z " fill="#3263E7" transform="translate(288,184)"/>
<path d="M0 0 C5.28 0 10.56 0 16 0 C16 5.28 16 10.56 16 16 C13.81816691 14.55663349 11.63801172 13.11062973 9.46875 11.6484375 C7.94288016 10.62958137 6.40342162 9.63038078 4.84375 8.6640625 C2.9375 7.4375 2.9375 7.4375 0 5 C0 3.35 0 1.7 0 0 Z " fill="#3060DB" transform="translate(139,290)"/>
<path d="M0 0 C4.455 2.97 4.455 2.97 9 6 C7.68 6.33 6.36 6.66 5 7 C5 6.34 5 5.68 5 5 C4.01 5 3.02 5 2 5 C2 20.51 2 36.02 2 52 C1.34 52 0.68 52 0 52 C0 34.84 0 17.68 0 0 Z " fill="#4065C5" transform="translate(139,299)"/>
<path d="M0 0 C0.33 0 0.66 0 1 0 C3.74554361 12.50003593 1.28083434 23.85555519 -5.25 34.8125 C-6.15245664 36.21756245 -7.06363625 37.61730286 -8 39 C-8.99 38.67 -9.98 38.34 -11 38 C-9.515 37.505 -9.515 37.505 -8 37 C-8 35.02 -8 33.04 -8 31 C-6.68 30.67 -5.36 30.34 -4 30 C-3.67 28.35 -3.34 26.7 -3 25 C-4.32 24.67 -5.64 24.34 -7 24 C-6.67 22.35 -6.34 20.7 -6 19 C-4.35 18.67 -2.7 18.34 -1 18 C-0.505 9.09 -0.505 9.09 0 0 Z " fill="#3B63D6" transform="translate(293,186)"/>
<path d="M0 0 C4.23429756 1.31061591 8.07407404 2.94356259 12 5 C12 9.29 12 13.58 12 18 C11.34 18.33 10.68 18.66 10 19 C7.56442428 18.09176973 5.23804483 17.13171929 2.875 16.0625 C2.21628906 15.77181641 1.55757812 15.48113281 0.87890625 15.18164062 C-0.75049505 14.46139802 -2.37566132 13.73158857 -4 13 C-4 12.67 -4 12.34 -4 12 C-2.02 12 -0.04 12 2 12 C2 11.34 2 10.68 2 10 C3.65 10.33 5.3 10.66 7 11 C7 11.66 7 12.32 7 13 C8.32 12.67 9.64 12.34 11 12 C10.67 10.02 10.34 8.04 10 6 C9.36191406 5.81824219 8.72382813 5.63648438 8.06640625 5.44921875 C7.24011719 5.19785156 6.41382813 4.94648438 5.5625 4.6875 C4.73878906 4.44386719 3.91507813 4.20023438 3.06640625 3.94921875 C2.04353516 3.47935547 2.04353516 3.47935547 1 3 C0.67 2.01 0.34 1.02 0 0 Z " fill="#3A60D0" transform="translate(220,244)"/>
<path d="M0 0 C5.28 0 10.56 0 16 0 C16 5.28 16 10.56 16 16 C15.34 15.67 14.68 15.34 14 15 C13.66666667 12.66666667 13.33333333 10.33333333 13 8 C12.34 7.67 11.68 7.34 11 7 C11 6.01 11 5.02 11 4 C11.99 4 12.98 4 14 4 C14 3.01 14 2.02 14 1 C10.04 1 6.08 1 2 1 C2 2.32 2 3.64 2 5 C1.34 5 0.68 5 0 5 C0 3.35 0 1.7 0 0 Z " fill="#3E63C5" transform="translate(139,290)"/>
<path d="M0 0 C0.66 0.33 1.32 0.66 2 1 C1.67 1.66 1.34 2.32 1 3 C2.65 2.67 4.3 2.34 6 2 C5.67 2.99 5.34 3.98 5 5 C3.72576172 4.76023438 3.72576172 4.76023438 2.42578125 4.515625 C-6.84323607 3.12051635 -15.32023688 3.40837388 -24 7 C-24 6.34 -24 5.68 -24 5 C-17.38227113 0.67821788 -11.77178365 0.67728473 -4.09765625 0.95703125 C-2.56431641 0.97830078 -2.56431641 0.97830078 -1 1 C-0.67 0.67 -0.34 0.34 0 0 Z " fill="#3A61C8" transform="translate(258,162)"/>
<path d="M0 0 C2.49361571 1.20381448 4.68143083 2.45428722 7 4 C7 5.32 7 6.64 7 8 C14.92 8 22.84 8 31 8 C29 10 29 10 26.66162109 10.22705078 C25.70852051 10.21657715 24.75541992 10.20610352 23.7734375 10.1953125 C22.2265625 10.18564453 22.2265625 10.18564453 20.6484375 10.17578125 C19.56820312 10.15902344 18.48796875 10.14226562 17.375 10.125 C16.28703125 10.11597656 15.1990625 10.10695313 14.078125 10.09765625 C11.38519848 10.07403409 8.69270745 10.04109556 6 10 C5.34 8.35 4.68 6.7 4 5 C3.34 5 2.68 5 2 5 C2 4.34 2 3.68 2 3 C1.34 3 0.68 3 0 3 C0 2.01 0 1.02 0 0 Z " fill="#3961CF" transform="translate(148,306)"/>
<path d="M0 0 C0.66 1.65 1.32 3.3 2 5 C-3.41538462 8.07692308 -3.41538462 8.07692308 -6.375 7.6875 C-6.91125 7.460625 -7.4475 7.23375 -8 7 C-7.34 6.67 -6.68 6.34 -6 6 C-6.95865509 3.66924071 -6.95865509 3.66924071 -10 2 C-6.49223216 0.39644899 -3.85645121 -0.22036864 0 0 Z " fill="#3564EA" transform="translate(233,131)"/>
<path d="M0 0 C2.64 0.33 5.28 0.66 8 1 C8 1.66 8 2.32 8 3 C9.11375 3.103125 10.2275 3.20625 11.375 3.3125 C13.169375 3.6528125 13.169375 3.6528125 15 4 C15.99 5.485 15.99 5.485 17 7 C19.05003955 8.19232613 19.05003955 8.19232613 21 9 C20.67 10.32 20.34 11.64 20 13 C19.47792969 12.55269531 18.95585937 12.10539063 18.41796875 11.64453125 C12.67058481 6.92382535 6.87956152 3.79040159 0 1 C0 0.67 0 0.34 0 0 Z " fill="#3860CA" transform="translate(267,142)"/>
<path d="M0 0 C8.73666666 0.68973684 16.20199218 5.82760274 23 11 C21 12 21 12 18.65234375 11.29296875 C17.75644531 10.92816406 16.86054688 10.56335938 15.9375 10.1875 C15.03902344 9.83042969 14.14054687 9.47335938 13.21484375 9.10546875 C11 8 11 8 10 6 C9.01 5.67 8.02 5.34 7 5 C7 4.34 7 3.68 7 3 C5.68 3 4.36 3 3 3 C3 2.34 3 1.68 3 1 C2.01 0.67 1.02 0.34 0 0 Z " fill="#3D62CB" transform="translate(270,130)"/>
<path d="M0 0 C2.64 0 5.28 0 8 0 C8.33 1.65 8.66 3.3 9 5 C9.66 4.67 10.32 4.34 11 4 C10.67 5.65 10.34 7.3 10 9 C2.4726477 5.86652079 2.4726477 5.86652079 0.5 2.25 C0.335 1.5075 0.17 0.765 0 0 Z " fill="#3362E8" transform="translate(142,292)"/>
<path d="M0 0 C0.66 0.33 1.32 0.66 2 1 C1.83886719 1.52078125 1.67773438 2.0415625 1.51171875 2.578125 C-0.17936479 10.58172648 0.52227651 19.2571141 3 27 C-0.3166366 24.11131651 -1.61790867 22.39405035 -2 18 C-2.34262376 11.60067227 -1.82119113 6.14652006 0 0 Z " fill="#3B62C6" transform="translate(219,184)"/>
<path d="M0 0 C0 0.66 0 1.32 0 2 C-1.65 2.33 -3.3 2.66 -5 3 C-5 6.3 -5 9.6 -5 13 C-4.29875 12.67 -3.5975 12.34 -2.875 12 C0.26003116 10.90955438 2.70563182 10.84677357 6 11 C3.77174356 13.22825644 2.34238372 13.69239369 -0.625 14.625 C-1.44226563 14.88539063 -2.25953125 15.14578125 -3.1015625 15.4140625 C-3.72804688 15.60742188 -4.35453125 15.80078125 -5 16 C-6 15 -6 15 -6.09765625 12.05859375 C-6.08605469 10.86363281 -6.07445312 9.66867187 -6.0625 8.4375 C-6.05347656 7.23996094 -6.04445313 6.04242188 -6.03515625 4.80859375 C-6.02355469 3.88175781 -6.01195312 2.95492187 -6 2 C-2.25 0 -2.25 0 0 0 Z " fill="#3F5EC3" transform="translate(274,247)"/>
<path d="M0 0 C0.66 0 1.32 0 2 0 C2.28410823 3.91497569 2.52134177 7.83142562 2.75 11.75 C2.83121094 12.86117187 2.91242188 13.97234375 2.99609375 15.1171875 C3.05410156 16.18710938 3.11210937 17.25703125 3.171875 18.359375 C3.2347168 19.34389648 3.29755859 20.32841797 3.36230469 21.34277344 C2.89850747 24.74436974 1.59241497 25.85301715 -1 28 C-0.835 26.72125 -0.67 25.4425 -0.5 24.125 C0.32230851 16.11038747 0.07887954 8.04571278 0 0 Z " fill="#3A62CB" transform="translate(305,184)"/>
<path d="M0 0 C3.04144983 3.42489909 4.09503079 7.08887742 5.1875 11.4375 C5.36474609 12.09298828 5.54199219 12.74847656 5.72460938 13.42382812 C6.65948818 17.02257009 7.20773111 20.28232953 7 24 C6.34 24 5.68 24 5 24 C4.80664062 22.89140625 4.61328125 21.7828125 4.4140625 20.640625 C4.15136511 19.17702524 3.88832633 17.71348673 3.625 16.25 C3.43550781 15.15558594 3.43550781 15.15558594 3.2421875 14.0390625 C2.57166763 10.35120322 1.7154963 7.31165374 0 4 C0 2.68 0 1.36 0 0 Z " fill="#3C61CA" transform="translate(312,166)"/>
<path d="M0 0 C0 0.66 0 1.32 0 2 C-1.670625 1.7525 -1.670625 1.7525 -3.375 1.5 C-11.20413196 0.60488185 -19.13310946 0.92362242 -27 1 C-23.66271253 -2.33728747 -19.17116529 -1.56209183 -14.625 -1.75 C-13.6659375 -1.80542969 -12.706875 -1.86085937 -11.71875 -1.91796875 C-10.33042969 -1.98177734 -10.33042969 -1.98177734 -8.9140625 -2.046875 C-8.0679541 -2.08651367 -7.2218457 -2.12615234 -6.35009766 -2.16699219 C-3.77450519 -1.98397689 -2.2078401 -1.3003777 0 0 Z " fill="#3B61C6" transform="translate(266,140)"/>
<path d="M0 0 C0.33 0.66 0.66 1.32 1 2 C-0.07518118 4.44332726 -1.19808566 6.76754523 -2.4375 9.125 C-2.77587891 9.78371094 -3.11425781 10.44242188 -3.46289062 11.12109375 C-4.30149926 12.75106547 -5.14984811 14.37601909 -6 16 C-7.32 16 -8.64 16 -10 16 C-9.01 15.67 -8.02 15.34 -7 15 C-7 13.02 -7 11.04 -7 9 C-5.68 8.67 -4.36 8.34 -3 8 C-2.87625 7.4225 -2.7525 6.845 -2.625 6.25 C-1.99351176 3.97664233 -1.11141809 2.0746471 0 0 Z " fill="#3B5EC7" transform="translate(292,208)"/>
<path d="M0 0 C0.66 0 1.32 0 2 0 C0.58832253 5.26170694 -1.74850232 8.72171358 -5 13 C-5.33 12.34 -5.66 11.68 -6 11 C-5.06421005 8.64018187 -4.06652192 6.30368736 -3 4 C-3.66 3.67 -4.32 3.34 -5 3 C-4.360625 2.87625 -3.72125 2.7525 -3.0625 2.625 C-2.0415625 2.315625 -2.0415625 2.315625 -1 2 C-0.67 1.34 -0.34 0.68 0 0 Z " fill="#3861CB" transform="translate(311,224)"/>
<path d="M0 0 C1.54078615 2.98440561 2.86973276 6.01007758 4.125 9.125 C4.47820312 9.99382812 4.83140625 10.86265625 5.1953125 11.7578125 C6 14 6 14 6 16 C5.34 16 4.68 16 4 16 C4 15.01 4 14.02 4 13 C3.01 12.67 2.02 12.34 1 12 C1.33 10.68 1.66 9.36 2 8 C1.01 7.67 0.02 7.34 -1 7 C-0.67 4.69 -0.34 2.38 0 0 Z " fill="#3661CE" transform="translate(195,208)"/>
<path d="M0 0 C0 0.66 0 1.32 0 2 C-3.63 2 -7.26 2 -11 2 C-11 2.66 -11 3.32 -11 4 C-13.31 3.67 -15.62 3.34 -18 3 C-12.15069491 -0.24961394 -6.5246233 -0.12793379 0 0 Z " fill="#3D65CC" transform="translate(248,127)"/>
<path d="M0 0 C1.98 0 3.96 0 6 0 C6 1.32 6 2.64 6 4 C6.99 4 7.98 4 9 4 C9 4.99 9 5.98 9 7 C9.99 7 10.98 7 12 7 C12.33 7.99 12.66 8.98 13 10 C7.65978754 8.49806525 3.86352256 4.82517494 0 1 C0 0.67 0 0.34 0 0 Z " fill="#3A5ECA" transform="translate(200,244)"/>
<path d="M0 0 C3.86038436 2.08906965 6.46552611 4.35798817 9.3125 7.6875 C10.00988281 8.49574219 10.70726562 9.30398437 11.42578125 10.13671875 C12.20501953 11.05904297 12.20501953 11.05904297 13 12 C12.67 12.66 12.34 13.32 12 14 C11.01 13.34 10.02 12.68 9 12 C8.34 12 7.68 12 7 12 C6.773125 11.0925 6.54625 10.185 6.3125 9.25 C4.81149298 5.5332207 3.16878017 4.33489065 0 2 C0 1.34 0 0.68 0 0 Z " fill="#3D60CC" transform="translate(293,142)"/>
<path d="M0 0 C1.65 0 3.3 0 5 0 C5 0.66 5 1.32 5 2 C5.928125 2.12375 5.928125 2.12375 6.875 2.25 C9 3 9 3 10.25 5.0625 C10.4975 5.701875 10.745 6.34125 11 7 C10.34 7.66 9.68 8.32 9 9 C8.443125 8.2575 7.88625 7.515 7.3125 6.75 C5.06972822 4.08292005 2.77925025 2.08443768 0 0 Z " fill="#3860CE" transform="translate(266,169)"/>
<path d="M0 0 C3.59478807 3.32850747 6.22364768 6.98971331 9 11 C6.42468508 10.65198447 4.45167104 10.29035995 2.25 8.875 C0.38840818 6.08261228 0.31030802 3.28926502 0 0 Z " fill="#3A5DCB" transform="translate(201,224)"/>
<path d="M0 0 C0.66 1.32 1.32 2.64 2 4 C2.66 4 3.32 4 4 4 C3.67 5.32 3.34 6.64 3 8 C3.66 8.33 4.32 8.66 5 9 C4.34 9.66 3.68 10.32 3 11 C1.02 8.36 -0.96 5.72 -3 3 C-2.67 2.34 -2.34 1.68 -2 1 C-1.34 1.33 -0.68 1.66 0 2 C0 1.34 0 0.68 0 0 Z " fill="#335BCF" transform="translate(195,232)"/>
<path d="M0 0 C1.10844919 3.32534757 0.84454356 5.62182575 0 9 C-1.98 9.66 -3.96 10.32 -6 11 C-4.18690997 7.22272911 -2.0926741 3.62730178 0 0 Z " fill="#3F60C9" transform="translate(300,220)"/>
<path d="M0 0 C1.32 0 2.64 0 4 0 C3.44894091 3.9492568 2.61064629 7.34920174 1 11 C0.67 11 0.34 11 0 11 C0 7.37 0 3.74 0 0 Z " fill="#3A61D1" transform="translate(313,213)"/>
<path d="M0 0 C0.99 0.33 1.98 0.66 3 1 C1.04211104 2.14659247 -0.91632483 3.2922511 -2.875 4.4375 C-4.51082031 5.39462891 -4.51082031 5.39462891 -6.1796875 6.37109375 C-7.76453829 7.28644386 -9.36302282 8.18151141 -11 9 C-11 7.35 -11 5.7 -11 4 C-10.113125 3.896875 -9.22625 3.79375 -8.3125 3.6875 C-4.96999433 3.18537642 -4.96999433 3.18537642 -2.3125 1.375 C-1.549375 0.92125 -0.78625 0.4675 0 0 Z " fill="#385EBF" transform="translate(225,144)"/>
<path d="M0 0 C0 2 0 4 0 6 C-2.5654594 8.5654594 -4.47686668 8.54046087 -8 9 C-7.04270084 7.87411986 -6.08412105 6.7493285 -5.125 5.625 C-4.59132813 4.99851563 -4.05765625 4.37203125 -3.5078125 3.7265625 C-2.38567993 2.44163349 -1.20628025 1.20628025 0 0 Z " fill="#3C62CD" transform="translate(293,231)"/>
<path d="M0 0 C0.99 0.66 1.98 1.32 3 2 C3 2.99 3 3.98 3 5 C-2.2734375 8.22265625 -2.2734375 8.22265625 -4 9 C-4.66 8.67 -5.32 8.34 -6 8 C-6 7.01 -6 6.02 -6 5 C-4.02 5 -2.04 5 0 5 C0 3.35 0 1.7 0 0 Z " fill="#3F58B2" transform="translate(224,214)"/>
<path d="M0 0 C0.99 0.33 1.98 0.66 3 1 C3 2.32 3 3.64 3 5 C5.475 5.99 5.475 5.99 8 7 C7.67 7.99 7.34 8.98 7 10 C2.57320993 8.52440331 2.08567304 6.09942632 0 2 C0 1.34 0 0.68 0 0 Z " fill="#365DC8" transform="translate(210,215)"/>
<path d="M0 0 C0 3.25811062 -0.5522078 5.10441559 -2 8 C-2.99 8.33 -3.98 8.66 -5 9 C-5.33 9.99 -5.66 10.98 -6 12 C-6.33 11.34 -6.66 10.68 -7 10 C-6.02223933 8.51990357 -5.0427506 7.04094856 -4.0625 5.5625 C-3.51722656 4.73878906 -2.97195312 3.91507813 -2.41015625 3.06640625 C-1 1 -1 1 0 0 Z " fill="#3A61C7" transform="translate(196,152)"/>
<path d="M0 0 C1.32 0.66 2.64 1.32 4 2 C2.35 3.98 0.7 5.96 -1 8 C-1.93065133 5.39417629 -2.14917407 4.35801776 -1.0625 1.75 C-0.711875 1.1725 -0.36125 0.595 0 0 Z " fill="#3960CD" transform="translate(207,154)"/>
<path d="M0 0 C3.48331435 3.01887244 4.79157144 5.56909529 6 10 C4.68 9.34 3.36 8.68 2 8 C2.33 7.01 2.66 6.02 3 5 C2.01 5 1.02 5 0 5 C0 3.35 0 1.7 0 0 Z " fill="#3C5FD1" transform="translate(306,156)"/>
<path d="M0 0 C0.99 0.33 1.98 0.66 3 1 C3 3.31 3 5.62 3 8 C1.68 7.01 0.36 6.02 -1 5 C-0.67 3.35 -0.34 1.7 0 0 Z " fill="#395FDA" transform="translate(221,211)"/>
<path d="M0 0 C6.875 3.75 6.875 3.75 8 6 C6.68 6 5.36 6 4 6 C4 5.34 4 4.68 4 4 C2.68 4 1.36 4 0 4 C0 2.68 0 1.36 0 0 Z " fill="#305BCC" transform="translate(140,300)"/>
<path d="M0 0 C0.33 0.66 0.66 1.32 1 2 C3.32156597 2.40729228 5.6568787 2.74438677 8 3 C8.33 4.32 8.66 5.64 9 7 C5.9168649 5.80100302 2.93720508 4.52299523 0 3 C0 2.01 0 1.02 0 0 Z " fill="#3757B0" transform="translate(273,216)"/>
<path d="M0 0 C2.31 0.33 4.62 0.66 7 1 C1.85714286 5.42857143 1.85714286 5.42857143 -2 6 C-1.67 5.34 -1.34 4.68 -1 4 C-0.34 4 0.32 4 1 4 C0.67 2.68 0.34 1.36 0 0 Z " fill="#3E61CF" transform="translate(282,252)"/>
<path d="M0 0 C1.98 0.66 3.96 1.32 6 2 C6 3.32 6 4.64 6 6 C3.53199953 4.84826645 1.95216435 3.95216435 0 2 C0 1.34 0 0.68 0 0 Z " fill="#2D53DC" transform="translate(147,298)"/>
</svg>
